<svg width="512" height="512" viewBox="0 0 680 680" xmlns="http://www.w3.org/2000/svg">
  <circle cx="340" cy="310" r="270" fill="#0A1628"/>
  <circle cx="340" cy="310" r="268" fill="none" stroke="#1565C0" stroke-width="3" opacity="0.6"/>
  <circle cx="340" cy="310" r="255" fill="none" stroke="#1E88E5" stroke-width="1" opacity="0.3"/>
  <g opacity="0.12" fill="#90CAF9">
    <circle cx="200" cy="180" r="3"/><circle cx="230" cy="180" r="3"/><circle cx="260" cy="180" r="3"/>
    <circle cx="300" cy="180" r="3"/><circle cx="330" cy="180" r="3"/><circle cx="360" cy="180" r="3"/>
    <circle cx="400" cy="180" r="3"/><circle cx="430" cy="180" r="3"/><circle cx="460" cy="180" r="3"/>
    <circle cx="200" cy="210" r="3"/><circle cx="480" cy="210" r="3"/>
    <circle cx="200" cy="420" r="3"/><circle cx="460" cy="420" r="3"/><circle cx="490" cy="420" r="3"/>
    <circle cx="200" cy="450" r="3"/><circle cx="460" cy="450" r="3"/>
    <circle cx="200" cy="390" r="3"/><circle cx="490" cy="390" r="3"/>
  </g>
  <path d="M 225 220 C 225 185, 262 158, 300 164 C 318 167, 332 176, 340 176 C 348 176, 362 167, 380 164 C 418 158, 455 185, 455 220 C 455 252, 438 278, 432 305 C 422 345, 418 382, 408 415 C 400 440, 386 455, 370 455 C 354 455, 346 438, 342 420 C 340 410, 340 400, 340 400 C 340 400, 340 410, 338 420 C 334 438, 326 455, 310 455 C 294 455, 280 440, 272 415 C 262 382, 258 345, 248 305 C 242 278, 225 252, 225 220 Z" fill="#1565C0"/>
  <path d="M 235 220 C 235 192, 265 168, 300 173 C 318 176, 332 184, 340 184 C 348 184, 362 176, 380 173 C 415 168, 445 192, 445 220 C 445 248, 430 272, 424 298 L 256 298 C 250 272, 235 248, 235 220 Z" fill="#1976D2" opacity="0.7"/>
  <path d="M 272 183 C 272 183, 290 172, 318 172 C 310 185, 290 198, 275 205 Z" fill="#90CAF9" opacity="0.5"/>
  <path d="M 290 415 C 285 440, 294 455, 310 455 C 326 455, 334 438, 338 420 C 339 412, 340 405, 340 405 C 340 405, 341 412, 342 420 C 346 438, 354 455, 370 455 C 386 455, 395 440, 390 415 Z" fill="#0D47A1"/>
  <g stroke="#90CAF9" stroke-width="1.5" fill="none" opacity="0.6">
    <line x1="270" y1="280" x2="410" y2="280"/>
    <line x1="285" y1="310" x2="395" y2="310"/>
    <line x1="295" y1="340" x2="385" y2="340"/>
    <line x1="300" y1="280" x2="300" y2="340"/>
    <line x1="340" y1="280" x2="340" y2="340"/>
    <line x1="380" y1="280" x2="380" y2="340"/>
    <circle cx="300" cy="280" r="4" fill="#90CAF9"/>
    <circle cx="340" cy="280" r="4" fill="#00BCD4"/>
    <circle cx="380" cy="280" r="4" fill="#90CAF9"/>
    <circle cx="300" cy="310" r="4" fill="#00BCD4"/>
    <circle cx="340" cy="310" r="6" fill="#ffffff"/>
    <circle cx="380" cy="310" r="4" fill="#00BCD4"/>
    <circle cx="300" cy="340" r="4" fill="#90CAF9"/>
    <circle cx="340" cy="340" r="4" fill="#90CAF9"/>
    <circle cx="380" cy="340" r="4" fill="#90CAF9"/>
  </g>
  <rect x="295" y="365" width="90" height="32" rx="16" fill="#00BCD4"/>
  <text x="340" y="386" text-anchor="middle" font-size="15" font-weight="700" fill="#0A1628" font-family="'Segoe UI', sans-serif" letter-spacing="2">A  I</text>
  <line x1="222" y1="230" x2="168" y2="230" stroke="#FF1744" stroke-width="1" opacity="0.6" stroke-dasharray="3,2"/>
  <circle cx="155" cy="230" r="9" fill="#FF1744" opacity="0.9"/>
  <text x="140" y="218" text-anchor="middle" font-size="13" font-weight="700" fill="#FF5252" font-family="'Segoe UI', sans-serif">Caries</text>
  <line x1="222" y1="300" x2="168" y2="300" stroke="#00E676" stroke-width="1" opacity="0.6" stroke-dasharray="3,2"/>
  <circle cx="155" cy="300" r="9" fill="#00E676" opacity="0.9"/>
  <text x="140" y="288" text-anchor="middle" font-size="13" font-weight="700" fill="#69F0AE" font-family="'Segoe UI', sans-serif">Infection</text>
  <line x1="458" y1="300" x2="512" y2="300" stroke="#2979FF" stroke-width="1" opacity="0.6" stroke-dasharray="3,2"/>
  <circle cx="525" cy="300" r="9" fill="#2979FF" opacity="0.9"/>
  <text x="540" y="288" text-anchor="start" font-size="13" font-weight="700" fill="#82B1FF" font-family="'Segoe UI', sans-serif">Restoration</text>
  <text x="340" y="538" text-anchor="middle" font-size="48" font-weight="700" fill="#ffffff" font-family="'Segoe UI', sans-serif" letter-spacing="-1">Oral<tspan fill="#00BCD4">CIR</tspan><tspan fill="#ffffff">-Net</tspan></text>
  <text x="340" y="572" text-anchor="middle" font-size="15" fill="#90CAF9" font-family="'Segoe UI', sans-serif" letter-spacing="1">AI Dental Detection &amp; Assistant</text>
  <line x1="155" y1="566" x2="205" y2="566" stroke="#1565C0" stroke-width="1.5"/>
  <line x1="475" y1="566" x2="525" y2="566" stroke="#1565C0" stroke-width="1.5"/>
</svg>
